# xmcd CD database file generated by Grip 3.2.0
# 
# Track frame offsets:
#       150
#       16443
#       35876
#       45322
#       61123
#       81440
#       97886
#       114796
#       131858
#       150545
#       177558
#       191116
#       204548
#       218947
#       236715
#       251648
# 
# Disc length: 3581 seconds
# 
# Revision: 3
# Processed by: cddbd v1.5.1PL2 Copyright (c) Steve Scherf et al.
# Submitted via: Grip 3.2.0
# 
DISCID=e10dfb10
DTITLE=B.B. and The Blues Shacks - Blue Avenue
DYEAR=2004
DGENRE=Blues
TTITLE0=Cool Drinks
TTITLE1=Do to Me
TTITLE2=Wait on Honey
TTITLE3=Give and Take a Little
TTITLE4=Worried Times
TTITLE5=Beauty Parlor Gossip
TTITLE6=Answer to TT Special
TTITLE7=If That Ain't Love
TTITLE8=Can't Hide Love
TTITLE9=Good Night's Sleep
TTITLE10=If You Don't Want Me
TTITLE11=Mad Man Blues
TTITLE12=We Got Things To Work Out
TTITLE13=Rambling Kind
TTITLE14=Someday You'll Want Me
TTITLE15=Shipwrecked
EXTD=
EXTT0=
EXTT1=
EXTT2=
EXTT3=
EXTT4=
EXTT5=
EXTT6=
EXTT7=
EXTT8=
EXTT9=
EXTT10=
EXTT11=
EXTT12=
EXTT13=
EXTT14=
EXTT15=
PLAYORDER=
